<?xml version="1.0" encoding="UTF-8"?>
<svg xmlns="http://www.w3.org/2000/svg" xmlns:xlink="http://www.w3.org/1999/xlink" width="32px" height="32px" viewBox="0 0 32 32" version="1.1">
<g id="surface1">
<path style=" stroke:none;fill-rule:nonzero;fill:rgb(1.960784%,3.921569%,7.843138%);fill-opacity:1;" d="M 18.320312 16 C 18.320312 17.28125 17.28125 18.320312 16 18.320312 C 14.71875 18.320312 13.679688 17.28125 13.679688 16 C 13.679688 14.71875 14.71875 13.679688 16 13.679688 C 17.28125 13.679688 18.320312 14.71875 18.320312 16 Z M 18.320312 16 "/>
<path style=" stroke:none;fill-rule:nonzero;fill:rgb(1.960784%,3.921569%,7.843138%);fill-opacity:1;" d="M 26.289062 10.054688 C 25.789062 9.1875 25.175781 8.386719 24.46875 7.675781 L 21.789062 9.222656 C 20.960938 8.515625 20.011719 7.964844 18.992188 7.601562 C 18.097656 8.496094 17.363281 9.542969 16.824219 10.691406 C 19.808594 10.488281 22.890625 11.570312 25.75 13.804688 L 27.4375 12.828125 C 27.175781 11.859375 26.789062 10.925781 26.289062 10.054688 Z M 26.289062 10.054688 "/>
<path style=" stroke:none;fill-rule:nonzero;fill:rgb(1.960784%,3.921569%,7.843138%);fill-opacity:1;" d="M 16 27.882812 C 17.003906 27.878906 18.003906 27.746094 18.972656 27.492188 L 18.972656 24.398438 C 19.996094 24.039062 20.945312 23.492188 21.773438 22.789062 C 21.445312 21.5625 20.90625 20.40625 20.179688 19.367188 C 18.867188 22.050781 16.390625 24.179688 13.023438 25.539062 L 13.023438 27.484375 C 13.996094 27.746094 14.996094 27.878906 16 27.882812 Z M 16 27.882812 "/>
<path style=" stroke:none;fill-rule:nonzero;fill:rgb(1.960784%,3.921569%,7.843138%);fill-opacity:1;" d="M 5.710938 10.058594 C 5.210938 10.929688 4.824219 11.859375 4.558594 12.828125 L 7.242188 14.375 C 7.042969 15.445312 7.039062 16.539062 7.234375 17.609375 C 8.460938 17.933594 9.730469 18.046875 10.992188 17.941406 C 9.324219 15.460938 8.722656 12.25 9.226562 8.65625 L 7.539062 7.679688 C 6.828125 8.394531 6.214844 9.191406 5.710938 10.058594 Z M 5.710938 10.058594 "/>
<path style=" stroke:none;fill-rule:nonzero;fill:rgb(0%,70.588237%,100%);fill-opacity:1;" d="M 26.289062 21.941406 C 26.789062 21.070312 27.175781 20.140625 27.441406 19.171875 L 24.761719 17.625 C 24.960938 16.542969 24.960938 15.449219 24.769531 14.390625 C 23.542969 14.066406 22.273438 13.953125 21.007812 14.058594 C 22.679688 16.539062 23.28125 19.75 22.777344 23.34375 L 24.464844 24.320312 C 25.171875 23.605469 25.785156 22.808594 26.289062 21.941406 Z M 26.289062 21.941406 "/>
<path style=" stroke:none;fill-rule:nonzero;fill:rgb(0%,70.588237%,100%);fill-opacity:1;" d="M 5.710938 21.941406 C 6.210938 22.808594 6.824219 23.609375 7.53125 24.320312 L 10.210938 22.773438 C 11.039062 23.480469 11.988281 24.03125 13.007812 24.398438 C 13.902344 23.5 14.636719 22.453125 15.175781 21.304688 C 12.191406 21.507812 9.109375 20.429688 6.25 18.195312 L 4.5625 19.167969 C 4.828125 20.136719 5.210938 21.070312 5.710938 21.941406 Z M 5.710938 21.941406 "/>
<path style=" stroke:none;fill-rule:nonzero;fill:rgb(0%,70.588237%,100%);fill-opacity:1;" d="M 16 4.117188 C 14.996094 4.117188 13.996094 4.25 13.027344 4.503906 L 13.027344 7.597656 C 12.003906 7.957031 11.054688 8.503906 10.226562 9.210938 C 10.554688 10.433594 11.09375 11.589844 11.820312 12.632812 C 13.132812 9.945312 15.609375 7.820312 18.976562 6.460938 L 18.976562 4.511719 C 18.003906 4.253906 17.003906 4.121094 16 4.117188 Z M 16 4.117188 "/>
<path style=" stroke:none;fill-rule:nonzero;fill:rgb(0%,70.588237%,100%);fill-opacity:1;" d="M 16 2.074219 C 23.679688 2.074219 29.925781 8.320312 29.925781 16 C 29.925781 23.679688 23.679688 29.925781 16 29.925781 C 8.320312 29.925781 2.074219 23.679688 2.074219 16 C 2.074219 8.320312 8.320312 2.074219 16 2.074219 M 16 0.03125 C 7.179688 0.03125 0.03125 7.179688 0.03125 16 C 0.03125 24.820312 7.179688 31.96875 16 31.96875 C 24.820312 31.96875 31.96875 24.820312 31.96875 16 C 31.96875 7.179688 24.820312 0.03125 16 0.03125 Z M 16 0.03125 "/>
</g>
</svg>
